<svg width="24" height="25" viewBox="0 0 24 25" fill="none" xmlns="http://www.w3.org/2000/svg">
<g clip-path="url(#clip0_1_636)">
<path d="M17.3439 4.033C15.7779 3.067 13.9779 2.5 12.0109 2.5V4.033H17.3439Z" fill="#ED4C5C"/>
<path d="M12.0109 5.567H19.2109C18.6439 5 18.0109 4.467 17.3439 4.033H12.0109V5.567Z" fill="white"/>
<path d="M12.0109 7.1H20.4439C20.0896 6.55483 19.6881 6.04186 19.2439 5.567H12.0109V7.1Z" fill="#ED4C5C"/>
<path d="M12.0109 8.633H21.2439C21.0109 8.1 20.7439 7.567 20.4439 7.1H12.0109V8.633Z" fill="white"/>
<path d="M12.0109 10.167H21.7439C21.6125 9.64483 21.4455 9.13229 21.2439 8.633H12.0109V10.167Z" fill="#ED4C5C"/>
<path d="M12.0109 11.733H21.9779C21.9439 11.2 21.8439 10.7 21.7439 10.2H12.0109V11.733Z" fill="white"/>
<path d="M21.9786 11.733H12.0108V12.5H2.00995C2.00995 12.767 2.00995 13 2.04295 13.267H21.9786C22.0116 13 22.0116 12.767 22.0116 12.5C22.0116 12.233 22.0116 11.967 21.9786 11.733Z" fill="#ED4C5C"/>
<path d="M2.27699 14.8H21.7446C21.8786 14.3 21.9446 13.8 21.9786 13.267H2.04297C2.07697 13.767 2.14298 14.3 2.27699 14.8Z" fill="white"/>
<path d="M2.77702 16.333H21.2445C21.4446 15.833 21.6116 15.333 21.7446 14.8H2.27698C2.40999 15.333 2.577 15.833 2.77702 16.333Z" fill="#ED4C5C"/>
<path d="M3.57704 17.867H20.4444C20.7445 17.367 21.0115 16.867 21.2445 16.333H2.77698C3.01 16.867 3.27702 17.367 3.57704 17.867Z" fill="white"/>
<path d="M4.77737 19.4H19.2446C19.6786 18.933 20.1116 18.4 20.4447 17.867H3.57727C3.9103 18.433 4.34333 18.933 4.77737 19.4Z" fill="#ED4C5C"/>
<path d="M6.6435 20.933H17.3784C18.0784 20.5 18.6785 19.967 19.2445 19.4H4.77734C5.34339 20 5.97744 20.5 6.6435 20.933Z" fill="white"/>
<path d="M12.0105 22.5C13.9775 22.5 15.8105 21.933 17.3775 20.933H6.64349C8.21049 21.933 10.0435 22.5 12.0105 22.5Z" fill="#ED4C5C"/>
<path d="M6.67695 4.033C5.97695 4.467 5.34295 5 4.77695 5.567C4.30995 6.033 3.90995 6.567 3.57695 7.1C3.27695 7.6 2.97695 8.1 2.77695 8.633C2.57695 9.133 2.40995 9.633 2.27695 10.167C2.14295 10.667 2.07695 11.167 2.04295 11.7C2.00995 11.967 2.00995 12.233 2.00995 12.5H12.0099V2.5C10.0429 2.5 8.24295 3.067 6.67695 4.033Z" fill="#428BC1"/>
<path d="M9.67693 2.833L9.84293 3.333H10.3429L9.94293 3.667L10.0769 4.167L9.67693 3.867L9.27693 4.167L9.40993 3.667L9.00993 3.333H9.50993L9.67693 2.833ZM11.0099 4.833L11.1769 5.333H11.6769L11.2769 5.667L11.4099 6.167L11.0099 5.867L10.6099 6.167L10.7429 5.667L10.3429 5.333H10.8429L11.0099 4.833ZM8.34293 4.833L8.50993 5.333H9.00993L8.60993 5.667L8.74293 6.167L8.34293 5.867L7.94293 6.167L8.07693 5.667L7.67693 5.333H8.17693L8.34293 4.833ZM9.67693 6.833L9.84293 7.333H10.3429L9.94293 7.667L10.0769 8.167L9.67693 7.867L9.27693 8.167L9.40993 7.667L9.00993 7.333H9.50993L9.67693 6.833ZM7.00993 6.833L7.17693 7.333H7.67693L7.27693 7.667L7.40993 8.167L7.00993 7.867L6.60993 8.167L6.74293 7.667L6.34293 7.333H6.84293L7.00993 6.833ZM4.34293 6.833L4.50993 7.333H5.00993L4.60993 7.667L4.74293 8.167L4.34293 7.867L3.94293 8.167L4.07693 7.667L3.67693 7.333H4.17693L4.34293 6.833ZM11.0099 8.833L11.1769 9.333H11.6769L11.2769 9.667L11.4099 10.167L11.0099 9.867L10.6099 10.167L10.7429 9.667L10.3429 9.333H10.8429L11.0099 8.833ZM8.34293 8.833L8.50993 9.333H9.00993L8.60993 9.667L8.74293 10.167L8.34293 9.867L7.94293 10.167L8.07693 9.667L7.67693 9.333H8.17693L8.34293 8.833ZM5.67693 8.833L5.84293 9.333H6.34293L5.94293 9.667L6.07693 10.167L5.67693 9.867L5.27693 10.167L5.40993 9.667L5.00993 9.333H5.50993L5.67693 8.833ZM9.67693 10.833L9.84293 11.333H10.3429L9.94293 11.667L10.0769 12.167L9.67693 11.867L9.27693 12.167L9.40993 11.667L9.00993 11.333H9.50993L9.67693 10.833ZM7.00993 10.833L7.17693 11.333H7.67693L7.27693 11.667L7.40993 12.167L7.00993 11.867L6.60993 12.167L6.74293 11.667L6.34293 11.333H6.84293L7.00993 10.833ZM4.34293 10.833L4.50993 11.333H5.00993L4.60993 11.667L4.74293 12.167L4.34293 11.867L3.94293 12.167L4.07693 11.667L3.67693 11.333H4.17693L4.34293 10.833ZM5.27693 6.167L5.67693 5.867L6.07693 6.167L5.90993 5.667L6.30993 5.333H5.80993L5.67693 4.833L5.50993 5.333H5.04293L5.44293 5.633L5.27693 6.167ZM2.60993 10.167L3.00993 9.867L3.40993 10.167L3.24293 9.667L3.64293 9.333H3.17693L3.00993 8.833L2.84293 9.333H2.50993C2.50993 9.367 2.47693 9.4 2.47693 9.433L2.74293 9.633L2.60993 10.167Z" fill="white"/>
</g>
<defs>
<clipPath id="clip0_1_636">
<rect x="0.00994873" y="0.5" width="23.08" height="24" rx="11.54" fill="white"/>
</clipPath>
</defs>
</svg>
