<svg width="14" height="15" viewBox="0 0 14 15" fill="none" xmlns="http://www.w3.org/2000/svg">
<path d="M6.91998 5.5935C7.77331 5.6335 7.99331 6.36016 8.00665 6.70016H9.19998C9.14665 5.38016 8.20665 4.5735 6.89998 4.5735C5.42665 4.5735 4.33331 5.50016 4.33331 7.5935C4.33331 8.88683 4.95331 10.4202 6.89331 10.4202C8.37331 10.4202 9.16665 9.32016 9.18665 8.4535H7.99331C7.97331 8.84683 7.69331 9.3735 6.90665 9.4135C6.03331 9.38683 5.66665 8.70683 5.66665 7.5935C5.66665 5.66683 6.51998 5.60683 6.91998 5.5935ZM6.99998 0.833496C3.31998 0.833496 0.333313 3.82016 0.333313 7.50016C0.333313 11.1802 3.31998 14.1668 6.99998 14.1668C10.68 14.1668 13.6666 11.1802 13.6666 7.50016C13.6666 3.82016 10.68 0.833496 6.99998 0.833496ZM6.99998 12.8335C4.05998 12.8335 1.66665 10.4402 1.66665 7.50016C1.66665 4.56016 4.05998 2.16683 6.99998 2.16683C9.93998 2.16683 12.3333 4.56016 12.3333 7.50016C12.3333 10.4402 9.93998 12.8335 6.99998 12.8335Z" fill="#ADADAD"/>
</svg>
